SplineFontDB: 3.0
FontName: Forsythe
FullName: Forsythe
FamilyName: Forsythe
Weight: Book
Copyright: Copyright (c) 2012, Tristen Brown <tristen.brown@gmail.com>, with Reserved Font Name: 'Forsyhe'.\n\nThis Font Software is licensed under the SIL Open Font License, Version 1.0.\nThe license available with a FAQ at:\nhttp://scripts.sil.org/OFL\n\nSeptember 2012
UComments: "2012-9-15: Created." 
Version: 001.000
ItalicAngle: 0
UnderlinePosition: -100
UnderlineWidth: 50
Ascent: 800
Descent: 200
LayerCount: 2
Layer: 0 0 "Back"  1
Layer: 1 0 "Fore"  0
XUID: [1021 562 2126814528 16413965]
FSType: 0
OS2Version: 0
OS2_WeightWidthSlopeOnly: 0
OS2_UseTypoMetrics: 1
CreationTime: 1347737418
ModificationTime: 1348783105
OS2TypoAscent: 0
OS2TypoAOffset: 1
OS2TypoDescent: 0
OS2TypoDOffset: 1
OS2TypoLinegap: 90
OS2WinAscent: 0
OS2WinAOffset: 1
OS2WinDescent: 0
OS2WinDOffset: 1
HheadAscent: 0
HheadAOffset: 1
HheadDescent: 0
HheadDOffset: 1
OS2Vendor: 'PfEd'
Lookup: 258 0 0 "Latin Kerning"  {"Latin Kerning-1" [150,15,2] } ['kern' ('latn' <'dflt' > ) ]
MarkAttachClasses: 1
DEI: 91125
Encoding: ISO8859-1
UnicodeInterp: none
NameList: Adobe Glyph List
DisplaySize: -24
AntiAlias: 1
FitToEm: 1
WinInfo: 0 38 11
BeginPrivate: 0
EndPrivate
BeginChars: 256 95

StartChar: exclam
Encoding: 33 33 0
Width: 124
VWidth: -200
Flags: HW
HStem: -200 80<30 94> 580 20G<30 94> 580 20G<30 94>
VStem: 30 64<-200 -120 -72 600>
LayerCount: 2
Fore
SplineSet
30 600 m 1xd0
 94 600 l 1
 94 -72 l 1
 30 -72 l 1
 30 600 l 1xd0
30 -120 m 1
 94 -120 l 1
 94 -200 l 1
 30 -200 l 1
 30 -120 l 1
EndSplineSet
EndChar

StartChar: quotedbl
Encoding: 34 34 1
Width: 236
VWidth: -200
Flags: HW
HStem: 456 144<30 94 142 206>
VStem: 30 64<456 600> 142 64<456 600>
LayerCount: 2
Fore
SplineSet
30 600 m 1
 94 600 l 1
 94 456 l 1
 30 456 l 1
 30 600 l 1
142 600 m 1
 206 600 l 1
 206 456 l 1
 142 456 l 1
 142 600 l 1
EndSplineSet
EndChar

StartChar: numbersign
Encoding: 35 35 2
Width: 428
VWidth: -200
Flags: HW
HStem: -200 21G<94 158 270 334> -200 21G<94 158 270 334> 72 64<30 94 158 270 334 398> 264 64<30 94 158 270 334 398> 580 20G<94 158 270 334> 580 20G<94 158 270 334>
VStem: 94 64<-200 72 136 264 328 600> 270 64<-200 72 136 264 328 600>
LayerCount: 2
Fore
SplineSet
94 600 m 1xbb
 158 600 l 1
 158 328 l 1
 270 328 l 1
 270 600 l 1
 334 600 l 1
 334 328 l 1
 398 328 l 1
 398 264 l 1
 334 264 l 1
 334 136 l 1
 398 136 l 1
 398 72 l 1
 334 72 l 1
 334 -200 l 1
 270 -200 l 1
 270 72 l 1
 158 72 l 1
 158 -200 l 1
 94 -200 l 1
 94 72 l 1
 30 72 l 1
 30 136 l 1
 94 136 l 1
 94 264 l 1
 30 264 l 1
 30 328 l 1
 94 328 l 1
 94 600 l 1xbb
158 264 m 1
 158 136 l 1
 270 136 l 1
 270 264 l 1
 158 264 l 1
EndSplineSet
EndChar

StartChar: I
Encoding: 73 73 3
Width: 124
VWidth: -200
Flags: HW
HStem: -200 21G<30 94> -200 21G<30 94> 580 20G<30 94> 580 20G<30 94>
VStem: 30 64<-200 600>
LayerCount: 2
Fore
SplineSet
30 600 m 5xa8
 94 600 l 5
 94 -200 l 5
 30 -200 l 5
 30 600 l 5xa8
EndSplineSet
EndChar

StartChar: dollar
Encoding: 36 36 4
Width: 284
VWidth: -200
Flags: HW
HStem: -200 21G<110 174> -200 21G<110 174> -104 64<94.0663 110 174 189.938> 152 64<94.0641 189.936> 440 64<94.0625 110 174 189.938> 580 20G<110 174> 580 20G<110 174>
VStem: 30 64<-39.911 56 216.062 439.938> 110 64<-200 -104 504 600> 190 63.5<-39.9375 151.938 344 439.938>
LayerCount: 2
Fore
SplineSet
110 600 m 1xbdc0
 174 600 l 1
 174 504 l 1
 190 504 l 2
 221.96484375 504 253.5 472 253.5 440 c 2
 254 344 l 1
 190 344 l 1
 190 408 l 2
 190 440 190 440 158 440 c 2
 126 440 l 2
 94 440 94 440 94 408 c 2
 94 296 l 1
 94 248 l 2
 94 216 94.0380859375 216 126 216 c 2
 190 216 l 2
 221.96484375 216 253.5 184 253.5 152 c 2
 253.5 -40 l 2
 253.498046875 -72 221.96484375 -104 190 -104 c 2
 174 -104 l 1
 174 -200 l 1
 110 -200 l 1
 110 -104 l 1
 94 -104 l 2
 62.03515625 -104 30 -72 30 -40 c 2
 30.5 56 l 1
 94 56 l 1
 94 -8 l 2
 94 -40 94.009765625 -40 127.71875 -40 c 2
 158 -40 l 2
 190 -40 190 -40 190 -8 c 2
 190 24 l 1
 190 72 l 1
 190 120 l 2
 190 152 189.96484375 152 158 152 c 2
 94 152 l 2
 62.03515625 152 30 184 30 216 c 2
 30 440 l 2
 30 472 62.03515625 504 94 504 c 2
 110 504 l 1
 110 600 l 1xbdc0
EndSplineSet
EndChar

StartChar: percent
Encoding: 37 37 5
Width: 284
VWidth: -200
Flags: HW
HStem: -200 96<190 254> 504 96<30 94>
VStem: 30 64<504 600> 190 64<-200 -104>
LayerCount: 2
Fore
SplineSet
30 600 m 5
 94 600 l 5
 94 504 l 5
 30 504 l 5
 30 600 l 5
190 600 m 5
 254 600 l 5
 94 -200 l 5
 30 -200 l 5
 190 600 l 5
190 -104 m 5
 254 -104 l 5
 254 -200 l 5
 190 -200 l 5
 190 -104 l 5
EndSplineSet
EndChar

StartChar: ampersand
Encoding: 38 38 6
Width: 348
VWidth: -200
Flags: HW
HStem: -200 64<94.089 205.938> 152 64<94 206 270 318> 536 64<94.0605 238>
VStem: 30 64<-135.933 152 216 535.958> 206 64<-135.938 152 216 296>
LayerCount: 2
Fore
SplineSet
94 600 m 6
 238 600 l 5
 238 536 l 5
 125 536 l 6
 94 536 94 536 94 504 c 6
 94 216 l 5
 206 216 l 5
 206 296 l 5
 270 296 l 5
 270 216 l 5
 318 216 l 5
 318 152 l 5
 270 152 l 5
 270 -136 l 6
 270 -168 238 -200 206 -200 c 6
 94 -200 l 6
 62 -200 30 -168 30 -136 c 6
 30 152 l 5
 94 184 l 5
 30 216 l 5
 30 536 l 6
 30 568 62 600 94 600 c 6
94 152 m 5
 94 -102.0625 l 6
 94 -135.98828125 94 -136 126 -136 c 6
 174 -136 l 6
 206 -136 206 -136 206 -104 c 6
 206 152 l 5
 94 152 l 5
EndSplineSet
EndChar

StartChar: quotesingle
Encoding: 39 39 7
Width: 124
VWidth: -200
Flags: HW
HStem: 456 144<30 94>
VStem: 30 64<456 600>
LayerCount: 2
Fore
SplineSet
30 600 m 5
 94 600 l 5
 94 456 l 5
 30 456 l 5
 30 600 l 5
EndSplineSet
EndChar

StartChar: parenleft
Encoding: 40 40 8
Width: 220
VWidth: -200
Flags: HW
HStem: -200 64<94.0632 190> 536 64<94.0705 190>
VStem: 30 160<-181.113 -136 536 581.455> 30 64<-135.938 535.954>
LayerCount: 2
Fore
SplineSet
94 600 m 6xd0
 190 600 l 5
 190 536 l 5xe0
 125.5625 536 l 6
 125.044921875 536 l 0
 94.2421875 536 94 535.828125 94 504.712890625 c 0
 94 504 l 6
 94 -104 l 6xd0
 94 -136 94.013671875 -136 126.09375 -136 c 6
 190 -136 l 5
 190 -200 l 5xe0
 94 -200 l 6xd0
 62 -200 30 -168 30 -136 c 6
 30 539 l 6xe0
 30 539.002929688 l 0
 30 568.001953125 62.0009765625 600 94 600 c 6xd0
EndSplineSet
EndChar

StartChar: parenright
Encoding: 41 41 9
Width: 220
VWidth: -200
Flags: HW
HStem: -200 64<30 125.912> 536 64<30 125.911>
VStem: 126 64<-135.935 535.935>
LayerCount: 2
Fore
SplineSet
30 600 m 5xe0
 126 600 l 6xd0
 157.999023438 600 190 568.001953125 190 539.002929688 c 0
 190 539 l 6
 190 -136 l 6xe0
 190 -168 158 -200 126 -200 c 6xd0
 30 -200 l 5
 30 -136 l 5xe0
 94 -136 l 6
 125.75390625 -136 126 -135.999023438 126 -103.267578125 c 0
 126 -102.5 l 6
 126 502.4375 l 6xd0
 126 502.984375 l 0
 126 535.998046875 125.825195312 536 94.0107421875 536 c 0
 94 536 l 6
 30 536 l 5
 30 600 l 5xe0
EndSplineSet
EndChar

StartChar: asterisk
Encoding: 42 42 10
Width: 252
VWidth: -200
Flags: HW
HStem: 408 192<110 142>
VStem: 110 33<408 472 536 600>
LayerCount: 2
Fore
SplineSet
110 600 m 5
 143 600 l 5
 142 536 l 5
 206 568 l 5
 222 536 l 5
 158 504 l 5
 222 472 l 5
 206 440 l 5
 142 472 l 5
 143 408 l 5
 110 408 l 5
 110 472 l 5
 46 440 l 5
 30 472 l 5
 94 504 l 5
 30 536 l 5
 46 568 l 5
 110 536 l 5
 110 600 l 5
EndSplineSet
EndChar

StartChar: plus
Encoding: 43 43 11
Width: 412
VWidth: -200
Flags: HW
HStem: 172 64<30 174 238 382>
VStem: 174 64<28 172 236 380>
LayerCount: 2
Fore
SplineSet
174 380 m 5
 238 380 l 5
 238 236 l 5
 382 236 l 5
 382 172 l 5
 238 172 l 5
 238 28 l 5
 174 28 l 5
 174 172 l 5
 30 172 l 5
 30 236 l 5
 174 236 l 5
 174 380 l 5
EndSplineSet
EndChar

StartChar: comma
Encoding: 44 44 12
Width: 156
VWidth: -200
Flags: W
HStem: -312 112
VStem: 30 96<-280 -232>
LayerCount: 2
Fore
SplineSet
126 -200 m 1
 126 -280 l 1
 30 -312 l 1
 30 -232 l 1
 126 -200 l 1
EndSplineSet
EndChar

StartChar: hyphen
Encoding: 45 45 13
Width: 332
VWidth: -400
Flags: HW
HStem: 152 64<30 302>
VStem: 30 272<152 216>
LayerCount: 2
Fore
SplineSet
30 216 m 5
 302 216 l 5
 302 152 l 5
 30 152 l 5
 30 216 l 5
EndSplineSet
EndChar

StartChar: period
Encoding: 46 46 14
Width: 124
VWidth: -200
Flags: HW
HStem: -200 80<30 94>
VStem: 30 64<-200 -120>
LayerCount: 2
Fore
SplineSet
30 -120 m 5
 94 -120 l 5
 94 -200 l 5
 30 -200 l 5
 30 -120 l 5
EndSplineSet
EndChar

StartChar: slash
Encoding: 47 47 15
Width: 299
VWidth: -200
Flags: HW
HStem: -400 21G<10 110.4> -400 21G<10 110.4> 380 20G<181.6 282> 380 20G<181.6 282>
VStem: 10 272
LayerCount: 2
Fore
SplineSet
206 599.96875 m 5xa8
 269 599.96875 l 5
 93 -200.03125 l 5
 30 -200.03125 l 5
 206 599.96875 l 5xa8
EndSplineSet
EndChar

StartChar: zero
Encoding: 48 48 16
Width: 300
VWidth: -200
Flags: HW
HStem: -200 64<94.0711 205.929> 536.003 63.9965<94.048 205.963>
VStem: 30 64<-135.937 535.954> 206 64<-135.937 535.934>
LayerCount: 2
Fore
SplineSet
94 600 m 6
 206 600 l 6
 238.025390625 600 270 568 270 536 c 6
 270 -136 l 6
 270 -168 238.025390625 -200 206 -200 c 6
 94 -200 l 6
 61.974609375 -200 30 -168 30 -136 c 6
 30 536 l 6
 30 568 61.974609375 600 94 600 c 6
120.28125 536 m 4
 94.4423828125 535.887695312 93.9990234375 534.125 93.9990234375 506.985351562 c 0
 93.9990234375 506.022460938 94 505.02734375 94 504 c 6
 94 -104 l 6
 94 -135.998046875 94.2099609375 -136 125.98828125 -136 c 0
 126 -136 l 6
 174 -136 l 6
 174.01171875 -136 l 0
 205.791992188 -136 206 -135.998046875 206 -104 c 6
 206 504 l 6
 206 505.03125 206.000976562 506.029296875 206.000976562 506.99609375 c 0
 206.000976562 535.76953125 205.500976562 536 174.739257812 536 c 0
 174 536 l 6
 126 536 l 6
 124.643554688 536 123.34765625 536.00390625 122.104492188 536.00390625 c 0
 121.483398438 536.00390625 120.875976562 536.002929688 120.28125 536 c 4
EndSplineSet
EndChar

StartChar: one
Encoding: 49 49 17
Width: 172
VWidth: -200
Flags: HW
HStem: -200 21G<78 142> -200 21G<78 142> 536 64<30 78>
VStem: 30 112<536 600> 78 64<-200 536>
LayerCount: 2
Fore
SplineSet
30 600 m 5xb0
 78 600 l 5xa8
 142 600 l 5xb0
 142 -200 l 5
 78 -200 l 5
 78 536 l 5xa8
 30 536 l 5
 30 600 l 5xb0
EndSplineSet
EndChar

StartChar: two
Encoding: 50 50 18
Width: 268
VWidth: -200
Flags: HW
HStem: -200 64<94.1938 237.812> 152 64<94.1399 174.515> 536 64<30 173.78>
VStem: 30.3125 63.5938<-135.624 151.938> 173.781 64.2812<216.055 535.955>
LayerCount: 2
Fore
SplineSet
30 600 m 5
 174.125 600 l 6
 206.08984375 600 238.0625 568 238.0625 536 c 6
 238.0625 208 l 6
 238.0625 176 206.24609375 152 174.28125 152 c 6
 126.0625 152 l 6
 94.09765625 152 94.109375 152 94.0625 120 c 6
 93.90625 -96 l 6
 94.06640625 -136 94.0947265625 -136 126.0625 -136 c 6
 238.0625 -136 l 5
 237.8125 -200 l 5
 94.0625 -200 l 6
 62.09765625 -200 30.349609375 -160 30.3125 -128 c 6
 30 152 l 6
 30 184 61.97265625 216 93.9375 216 c 6
 142 216 l 6
 168.821289062 216 174.51953125 216.044921875 174.51953125 234.931640625 c 0
 174.51953125 238.551757812 174.309570312 242.86328125 174 248 c 5
 173.78125 384 l 5
 173.78125 512 l 6
 173.78125 512.795898438 l 0
 173.78125 535.998046875 173.604492188 536 142.015625 536 c 0
 142 536 l 6
 30 536 l 5
 30 600 l 5
EndSplineSet
EndChar

StartChar: three
Encoding: 51 51 19
Width: 268
VWidth: -200
Flags: HW
HStem: -200 64<30 174> 152 64<30 174> 536 64<30 174>
VStem: 174 64<-136 152 216 536>
LayerCount: 2
Fore
SplineSet
30 600 m 5
 174 600 l 6
 206 600 238 568 238 536 c 6
 238 216 l 5
 190 184 l 5
 238 152 l 5
 238 -136 l 6
 238 -168 206 -200 174 -200 c 6
 30 -200 l 5
 30 -136 l 5
 174 -136 l 5
 174 152 l 5
 30 152 l 5
 30 216 l 5
 174 216 l 5
 174 536 l 5
 30 536 l 5
 30 600 l 5
EndSplineSet
EndChar

StartChar: four
Encoding: 52 52 20
Width: 300
VWidth: -200
Flags: HW
HStem: -200 21G<206 270> -200 21G<206 270> 152 64<94 206> 580 20G<30 94 206 270> 580 20G<30 94 206 270>
VStem: 30 64<216 600> 206 64<-200 152 216 600>
LayerCount: 2
Fore
SplineSet
30 600 m 5xb6
 94 600 l 5
 94 216 l 5
 206 216 l 5
 206 600 l 5
 270 600 l 5
 270 -200 l 5
 206 -200 l 5
 206 152 l 5
 30 152 l 5
 30 600 l 5xb6
EndSplineSet
EndChar

StartChar: five
Encoding: 53 53 21
Width: 268
VWidth: -200
Flags: HW
HStem: -200 64<30 174.03> 152 64<94.344 174.002> 536 64<94 238>
VStem: 30 64.2812<216.063 536> 174.094 63.6562<-135.938 151.937>
LayerCount: 2
Fore
SplineSet
30 600 m 5
 238 600 l 5
 238 536 l 5
 94 536 l 5
 94.28125 376 l 5
 94.28125 248 l 6
 94.28125 216.000976562 94.2880859375 216 126.25 216 c 6
 173.8125 216 l 6
 205.77734375 216 237.75 184 237.75 152 c 6
 237.75 -136 l 6
 237.75 -168 205.77734375 -200 173.8125 -200 c 6
 30 -200 l 5
 30 -136 l 5
 142.15625 -136 l 6
 174.06640625 -136 174.09375 -136 174.09375 -104.1640625 c 0
 174.09375 -104 l 6
 174.09375 120 l 6
 173.98828125 151.999023438 174.12109375 152 142.162109375 152 c 0
 142.15625 152 l 6
 93.9375 152 l 6
 61.97265625 152 30 184 30 216 c 6
 30 600 l 5
EndSplineSet
EndChar

StartChar: six
Encoding: 54 54 22
Width: 300
VWidth: -200
Flags: HW
HStem: -200 64<93.9996 205.812> 152.005 63.9952<94.0119 205.828> 580 20G<30 93.7334> 580 20G<30 93.7334>
VStem: 30 63.9375<-135.93 151.939 216 600> 205.875 64.125<-135.938 151.941>
LayerCount: 2
Fore
SplineSet
30 600 m 5xec
 93.71875 600 l 5
 94 216 l 5
 206 216 l 6
 238 216 270 184 270 152 c 6
 270 -136 l 6
 270 -168 238.015625 -200 206.03125 -200 c 6
 94 -200 l 6
 62 -200 30 -168 30 -136 c 6
 30 600 l 5xec
120.3125 152 m 4
 93.958984375 151.83984375 93.9375 149.588867188 93.9375 119 c 6
 93.9375 -104 l 6
 93.9375 -135.825195312 93.953125 -136 125.413085938 -136 c 0
 125.9375 -136 l 6
 173.90625 -136 l 6
 205.859375 -136 205.875 -136 205.875 -104.09375 c 0
 205.875 -104 l 6
 205.875 121 l 6
 205.875 121.965820312 l 0
 205.875 151.999023438 205.708984375 152 174 152 c 6
 125.9375 152 l 6
 124.604492188 152 123.330078125 152.004882812 122.107421875 152.004882812 c 0
 121.49609375 152.004882812 120.8984375 152.00390625 120.3125 152 c 4
EndSplineSet
EndChar

StartChar: seven
Encoding: 55 55 23
Width: 326
VWidth: -200
Flags: HW
HStem: -200 21G<233.906 296.656> -200 21G<233.906 296.656> 537.25 62.75<30 233.906>
VStem: 233.906 62.75<-200 537.25>
LayerCount: 2
Fore
SplineSet
30 600 m 5xb0
 296.65625 600 l 5
 296.65625 -200 l 5
 233.90625 -200 l 5
 233.90625 537.25 l 5
 30 537.25 l 5
 30 600 l 5xb0
EndSplineSet
EndChar

StartChar: eight
Encoding: 56 56 24
Width: 316
VWidth: -200
Flags: HW
HStem: -200 64<94.049 221.937> 152.003 63.9965<94.0893 221.916> 536.003 63.9965<93.962 221.937>
VStem: 30 64<-135.94 151.951 216.08 535.94> 222 64<-135.938 151.939 216.061 535.938>
LayerCount: 2
Fore
SplineSet
94 600 m 6
 222 600 l 6
 253.993164062 600 286 568 286 536 c 6
 286 216 l 5
 237.5 184 l 5
 286 152 l 5
 286 -136 l 6
 286 -168 269.993164062 -200 238 -200 c 6
 94 -200 l 6
 62 -200 30 -168 30 -136 c 6
 30 152 l 5
 94 184 l 5
 30 216 l 5
 30 536 l 6
 30.8876953125 567.987304688 62 600 94 600 c 6
120.3125 536 m 4
 96.251953125 535.89453125 93.9443359375 534.346679688 93.9443359375 511.920898438 c 0
 93.9443359375 509.526367188 93.970703125 506.893554688 94 504 c 6
 94 249 l 6
 94 216.37109375 94.0068359375 216 126 216 c 6
 189.5 216 l 6
 221.407226562 216 222 216 222 247 c 6
 222 504 l 6
 222 536 221.993164062 536 190 536 c 6
 126 536 l 6
 124.653320312 536 123.36328125 536.00390625 122.126953125 536.00390625 c 0
 121.508789062 536.00390625 120.904296875 536.002929688 120.3125 536 c 4
120.3125 152 m 4
 94.271484375 151.881835938 94 150.017578125 94 120.897460938 c 0
 94 120.27734375 94 119.645507812 94 119 c 6
 94 -104 l 6
 94 -105.334960938 l 0
 94 -136 94.2236328125 -136 126 -136 c 6
 190 -136 l 6
 221.994140625 -136 222 -136 222 -104 c 6
 222 121 l 6
 222 152 221.493164062 152 189.5 152 c 6
 126 152 l 6
 124.653320312 152 123.36328125 152.00390625 122.125976562 152.00390625 c 0
 121.5078125 152.00390625 120.903320312 152.002929688 120.3125 152 c 4
EndSplineSet
EndChar

StartChar: nine
Encoding: 57 57 25
Width: 300
VWidth: -200
Flags: HW
HStem: -200 21G<206.265 270> -200 21G<206.265 270> 152 64<94.172 205.973> 536.003 63.9965<94.1769 206>
VStem: 30 64.125<216.059 535.951> 206.281 63.7188<-200 152 216.08 535.93>
LayerCount: 2
Fore
SplineSet
93.96875 600 m 6xbc
 206 600 l 6
 238 600 270 568 270 536 c 6
 270 -200 l 5
 206.28125 -200 l 5
 206 152 l 5
 94 152 l 6
 62 152 30 184 30 216 c 6
 30 536 l 6
 30 568 61.984375 600 93.96875 600 c 6xbc
120.46875 536 m 4
 94.134765625 535.8828125 94.125 534.002929688 94.125 504.06640625 c 0
 94.125 504 l 6
 94.125 247 l 6
 94.125 246.034179688 l 0
 94.125 216.000976562 94.291015625 216 126 216 c 6
 174.0625 216 l 6
 206.046875 216 206.0625 216.37109375 206.0625 249 c 6
 206.0625 504 l 6
 206.0625 535.825195312 206.046875 536 174.586914062 536 c 0
 174.0625 536 l 6
 126.09375 536 l 6
 124.760742188 536 123.486328125 536.00390625 122.263671875 536.00390625 c 0
 121.65234375 536.00390625 121.0546875 536.002929688 120.46875 536 c 4
EndSplineSet
EndChar

StartChar: colon
Encoding: 58 58 26
Width: 124
VWidth: -400
Flags: W
VStem: 30 64<-40 104 296 440>
LayerCount: 2
Fore
SplineSet
30 440 m 1
 94 440 l 1
 94 296 l 1
 30 296 l 1
 30 440 l 1
30 104 m 1
 94 104 l 1
 94 -40 l 1
 30 -40 l 1
 30 104 l 1
EndSplineSet
EndChar

StartChar: semicolon
Encoding: 59 59 27
Width: 124
VWidth: -400
Flags: W
HStem: -200 21G<30 94> -200 21G<30 94>
VStem: 30 64<-200 104 296 440>
LayerCount: 2
Fore
SplineSet
30 440 m 1x20
 94 440 l 1
 94 296 l 1
 30 296 l 1
 30 440 l 1x20
30 104 m 1
 94 104 l 1
 94 -200 l 1
 30 -200 l 1xa0
 30 104 l 1
EndSplineSet
EndChar

StartChar: less
Encoding: 60 60 28
Width: 348
VWidth: -200
Flags: HW
VStem: 30 288
LayerCount: 2
Fore
SplineSet
318 520 m 5
 318 440 l 5
 78 184 l 5
 318 -40 l 5
 318 -120 l 5
 30 152 l 5
 30 216 l 5
 318 520 l 5
EndSplineSet
EndChar

StartChar: equal
Encoding: 61 61 29
Width: 332
VWidth: -400
Flags: HW
HStem: 88 64<30 302> 216 64<30 302>
VStem: 30 272<88 152 216 280>
LayerCount: 2
Fore
SplineSet
30 280 m 5
 302 280 l 5
 302 216 l 5
 30 216 l 5
 30 280 l 5
30 152 m 5
 302 152 l 5
 302 88 l 5
 30 88 l 5
 30 152 l 5
EndSplineSet
EndChar

StartChar: greater
Encoding: 62 62 30
Width: 348
VWidth: -200
Flags: HW
VStem: 30 288
LayerCount: 2
Fore
SplineSet
30 520 m 5
 318 216 l 5
 318 152 l 5
 30 -120 l 5
 30 -40 l 5
 270 184 l 5
 30 440 l 5
 30 520 l 5
EndSplineSet
EndChar

StartChar: question
Encoding: 63 63 31
Width: 284
VWidth: -200
Flags: HW
HStem: -200 80<30 94> 152 64<94.0774 189.949> 536 64<30 189.78>
VStem: 30 64<-200 -120 -72 151.592> 189.781 64.2188<216.056 535.955>
LayerCount: 2
Fore
SplineSet
30 600 m 5
 190.0625 600 l 6
 222.02734375 600 254 568 254 536 c 6
 254 208 l 6
 254 176 222.18359375 152 190.21875 152 c 6
 126 152 l 6
 94.03515625 152 94.046875 152 94 120 c 6
 94 -72 l 5
 30 -72 l 5
 30 150 l 6
 30 184 62 216 94 216 c 6
 158 216 l 6
 158.052734375 216 l 0
 188.828125 216 190.002929688 216.0078125 190.002929688 244.709960938 c 0
 190.002929688 245.766601562 190.001953125 246.86328125 190 248 c 6
 189.78125 384 l 5
 189.78125 512 l 6
 189.78125 512.795898438 l 0
 189.78125 535.998046875 189.604492188 536 158.015625 536 c 0
 158 536 l 6
 30 536 l 5
 30 600 l 5
30 -120 m 5
 94 -120 l 5
 94 -200 l 5
 30 -200 l 5
 30 -120 l 5
EndSplineSet
EndChar

StartChar: at
Encoding: 64 64 32
Width: 380
VWidth: -200
Flags: HW
HStem: -200 64<93.8215 349> -24 64<205.508 285.179> 312.003 63.9965<205.485 285.213> 536 64<93.7869 285.181>
VStem: 30 63.75<-135.937 535.934> 141.656 63.7812<40.0626 311.954> 285.25 64.75<40.0626 311.934 376 535.934>
LayerCount: 2
Fore
SplineSet
93.84375 600 m 2
 285.15625 600 l 2
 317.10546875 600 349 568 349 536 c 2
 350 40 l 2
 350 8 318 -24 287 -24 c 2
 205.5 -24 l 2
 173.575195312 -24 141.65625 8 141.65625 40 c 2
 141.65625 312 l 2
 141.65625 344 174.000976562 376 205.5 376 c 2
 285.21875 376 l 1
 285.21875 504 l 2
 285.21875 505.0625 285.219726562 506.08984375 285.219726562 507.083007812 c 0
 285.219726562 535.76953125 284.706054688 536 254.049804688 536 c 0
 253.3125 536 l 2
 125.6875 536 l 2
 124.950195312 536 l 0
 94.240234375 536 93.7490234375 535.76953125 93.7490234375 506.946289062 c 0
 93.7490234375 505.99609375 93.75 505.013671875 93.75 504 c 1
 93.75 -104 l 2
 93.75 -135.998046875 93.97265625 -136 125.67578125 -136 c 0
 125.6875 -136 l 2
 350 -136 l 1
 349 -200 l 1
 93.84375 -200 l 2
 61.8935546875 -200 30 -168 30 -136 c 2
 30 536 l 2
 30 568 61.8935546875 600 93.84375 600 c 2
231.65625 312 m 0
 205.879882812 311.887695312 205.436523438 310.125 205.436523438 282.9921875 c 0
 205.436523438 282.02734375 205.4375 281.030273438 205.4375 280 c 2
 205.4375 72 l 2
 205.4375 40.001953125 205.62890625 40 237.33203125 40 c 0
 237.34375 40 l 2
 253.3125 40 l 2
 253.32421875 40 l 0
 285.02734375 40 285.25 40.001953125 285.25 72 c 2
 285.25 280 l 2
 285.25 281.004882812 285.250976562 281.978515625 285.250976562 282.921875 c 0
 285.250976562 311.76953125 284.764648438 312 254.049804688 312 c 0
 253.3125 312 l 2
 237.34375 312 l 2
 235.991210938 312 234.705078125 312.00390625 233.470703125 312.00390625 c 0
 232.853515625 312.00390625 232.249023438 312.002929688 231.65625 312 c 0
EndSplineSet
EndChar

StartChar: A
Encoding: 65 65 33
Width: 412
VWidth: -200
Flags: HW
HStem: -200 21G<30 96.8309 315.169 382> -200 21G<30 96.8309 315.169 382> 72 48<145 267> 580 20G<154.8 257.2> 580 20G<154.8 257.2>
LayerCount: 2
Fore
SplineSet
158 600 m 1xb0
 254 600 l 1
 382 -200 l 1
 318 -200 l 1
 279.5 72 l 1
 132.5 72 l 1
 94 -200 l 1
 30 -200 l 1
 158 600 l 1xb0
206 520 m 1
 145 120 l 1
 267 120 l 1
 206 520 l 1
EndSplineSet
EndChar

StartChar: B
Encoding: 66 66 34
Width: 347
VWidth: -200
Flags: HW
HStem: -200 64<94.0177 253.875> 168.003 63.9965<94.0581 253.865> 536.003 63.9965<93.9309 253.875>
VStem: 30 63.9688<-135.94 167.951 232.08 535.94> 253.938 63.9688<-135.938 167.939 232.061 535.938>
LayerCount: 2
Fore
SplineSet
30 600 m 5
 253.90625 600 l 6
 285.90625 600 317.90625 568 317.90625 536 c 6
 317.6875 232 l 5
 269.90625 200 l 5
 317.90625 168 l 5
 317.90625 -136 l 6
 317.90625 -168 285.90625 -200 253.90625 -200 c 6
 30 -200 l 5
 30 600 l 5
120.28125 536 m 4
 96.220703125 535.89453125 93.9140625 534.346679688 93.9140625 511.908203125 c 0
 93.9140625 509.516601562 93.939453125 506.888671875 93.96875 504 c 6
 93.96875 265 l 6
 93.96875 232.37109375 93.9755859375 232 125.96875 232 c 6
 221.71875 232 l 6
 253.62890625 232 253.9375 232 253.9375 263 c 6
 253.9375 504 l 6
 253.9375 536 253.930664062 536 221.9375 536 c 6
 125.96875 536 l 6
 124.622070312 536 123.33203125 536.00390625 122.095703125 536.00390625 c 0
 121.477539062 536.00390625 120.873046875 536.002929688 120.28125 536 c 4
120.28125 168 m 4
 94.2353515625 167.881835938 93.96875 166.016601562 93.96875 136.8671875 c 0
 93.96875 136.256835938 93.96875 135.634765625 93.96875 135 c 6
 93.96875 -104 l 6
 93.96875 -105.334960938 l 0
 93.96875 -136 94.1923828125 -136 125.96875 -136 c 6
 221.9375 -136 l 6
 253.930664062 -136 253.9375 -136 253.9375 -104 c 6
 253.9375 137 l 6
 253.9375 168 253.711914062 168 221.71875 168 c 6
 125.96875 168 l 6
 124.622070312 168 123.331054688 168.00390625 122.094726562 168.00390625 c 0
 121.4765625 168.00390625 120.872070312 168.002929688 120.28125 168 c 4
EndSplineSet
EndChar

StartChar: C
Encoding: 67 67 35
Width: 316
VWidth: -200
Flags: HW
HStem: -200 64<94.0611 222> 535.906 63.9688<94.0625 222>
VStem: 30 64<-135.927 535.836> 222 64<-136 -40.0312 472 536>
LayerCount: 2
Back
SplineSet
227 600 m 6
 259 600.032226562 291 568 291 536 c 6
 291 472 l 5
 227 472 l 5
 227 536 l 5
 131 535.90625 l 6
 99 535.879882812 99 535.90234375 99 503.90625 c 6
 99 -104 l 6
 99 -136 99 -136.001953125 131 -136 c 6
 227 -136 l 5
 227 -40.03125 l 5
 291 -40 l 5
 291 -136 l 6
 291 -168 259 -200 227 -200 c 6
 99 -200 l 6
 67 -199.998046875 35 -168 35 -136 c 6
 35 536 l 6
 35 568 67 600.002929688 99 599.875 c 6
 227 600 l 6
EndSplineSet
Fore
SplineSet
222 600 m 6
 222.047851562 600 l 0
 254.032226562 600 286 567.984375 286 536 c 6
 286 472 l 5
 222 472 l 5
 222 536 l 5
 126 535.90625 l 6
 94 535.879882812 94 535.90234375 94 503.90625 c 6
 94 -104 l 6
 94 -135.75390625 94 -136 125.267578125 -136 c 0
 126 -136 l 6
 222 -136 l 5
 222 -40.03125 l 5
 286 -40 l 5
 286 -136 l 6
 286 -168 254 -200 222 -200 c 6
 94 -200 l 6
 62 -199.998046875 30 -168 30 -136 c 6
 30 536 l 6
 30 567.936523438 61.873046875 599.875 93.80859375 599.875 c 0
 94 599.875 l 6
 222 600 l 6
EndSplineSet
EndChar

StartChar: D
Encoding: 68 68 36
Width: 316
VWidth: -200
Flags: HW
HStem: -200 64<93.9018 221.844> 536.003 63.9965<93.8122 221.869>
VStem: 30 63.8438<-135.958 535.961> 221.906 64.0938<-135.938 535.937>
LayerCount: 2
Fore
SplineSet
30 600 m 5
 221.9375 600 l 6
 253.962890625 600 286 568 286 536 c 6
 286 -136 l 6
 286 -168 253.962890625 -200 221.9375 -200 c 6
 30 -200 l 5
 30 600 l 5
119.84375 536 m 4
 95.36328125 535.896484375 93.810546875 534.447265625 93.810546875 514.111328125 c 0
 93.810546875 511.157226562 93.84375 507.8046875 93.84375 504 c 6
 93.84375 -104 l 6
 93.84375 -135.999023438 93.84765625 -136 123.494140625 -136 c 0
 123.5 -136 l 6
 190.125 -136 l 6
 190.13671875 -136 l 0
 221.897460938 -136 221.90625 -135.998046875 221.90625 -104.052734375 c 0
 221.90625 -104 l 5
 221.90625 504 l 6
 221.90625 505.03125 221.907226562 506.029296875 221.907226562 506.99609375 c 0
 221.907226562 535.8359375 221.405273438 536 190.430664062 536 c 0
 189.90625 536 l 6
 125.875 536 l 6
 124.444335938 536 123.071289062 536.00390625 121.76171875 536.00390625 c 0
 121.106445312 536.00390625 120.466796875 536.002929688 119.84375 536 c 4
EndSplineSet
EndChar

StartChar: E
Encoding: 69 69 37
Width: 300
VWidth: -200
Flags: HW
HStem: -200 64<94 270> 168 64<94 270> 536 64<94 270>
VStem: 30 240<-200 -136 168 232 536 600> 30 64<-136 168 232 536>
CounterMasks: 1 e0
LayerCount: 2
Fore
SplineSet
30 600 m 5xf0
 270 600 l 5
 270 536 l 5xf0
 94 536 l 5
 94 232 l 5xe8
 270 232 l 5
 270 168 l 5xf0
 94 168 l 5
 94 -136 l 5xe8
 270 -136 l 5
 270 -200 l 5
 30 -200 l 5
 30 600 l 5xf0
EndSplineSet
EndChar

StartChar: F
Encoding: 70 70 38
Width: 300
VWidth: -200
Flags: HW
HStem: -200 21G<30 94> -200 21G<30 94> 168 64<94 270> 536 64<94 270>
VStem: 30 64<-200 168 232 536>
LayerCount: 2
Fore
SplineSet
30 600 m 5xb8
 270 600 l 5
 270 536 l 5
 94 536 l 5
 94 232 l 5
 270 232 l 5
 270 168 l 5
 94 168 l 5
 94 -104 l 5
 94 -200 l 5
 30 -200 l 5
 30 600 l 5xb8
EndSplineSet
EndChar

StartChar: G
Encoding: 71 71 39
Width: 332
VWidth: -200
Flags: HW
HStem: -200 64<94.0611 238> 168 64<174 238> 535.906 63.9688<94.0625 238>
VStem: 30 64<-135.927 535.837> 174 128<168 232> 238 64<-136 167.969 440 536>
LayerCount: 2
Fore
SplineSet
238 600 m 6xf4
 238.041992188 600 l 0
 270.029296875 600 302 567.987304688 302 536 c 6
 302 440 l 5
 238 440 l 5
 238 536 l 5
 126 535.90625 l 6
 94.0009765625 535.883789062 94 535.90234375 94 503.912109375 c 0
 94 503.90625 l 6
 94 -104 l 6
 94 -104.005859375 l 0
 94 -135.75390625 94.0009765625 -136 125.267578125 -136 c 0
 126 -136 l 6
 238 -136 l 5
 238 167.96875 l 5xf4
 174 168 l 5
 174 232 l 5
 302 232 l 5xf8
 302 -136 l 6
 302 -168.000976562 270.000976562 -200 238 -200 c 6
 94 -200 l 6
 61.9990234375 -199.998046875 30 -168.000976562 30 -136 c 6
 30 536 l 6
 30 567.936523438 61.87109375 599.875 93.8076171875 599.875 c 0
 94 599.875 l 6
 238 600 l 6xf4
EndSplineSet
EndChar

StartChar: H
Encoding: 72 72 40
Width: 308
VWidth: -200
Flags: W
HStem: -200 21G<30 94 214 278> -200 21G<30 94 214 278> 168 64<94 214> 580 20G<30 94 214 278> 580 20G<30 94 214 278>
VStem: 30 64<-200 168 232 600> 214 64<-200 168 232 600>
LayerCount: 2
Fore
SplineSet
30 600 m 5xb6
 94 600 l 5
 94 232 l 5
 214 232 l 5
 214 600 l 5
 278 600 l 5
 278 -200 l 5
 214 -200 l 5
 214 168 l 5
 94 168 l 5
 94 -200 l 5
 30 -200 l 5
 30 600 l 5xb6
EndSplineSet
EndChar

StartChar: J
Encoding: 74 74 41
Width: 300
VWidth: -200
Flags: HW
HStem: -200 64<94.071 205.957> 580 20G<206 270> 580 20G<206 270>
VStem: 30 64<-135.937 24> 206 64<-135.974 600>
LayerCount: 2
Fore
SplineSet
206 600 m 5xd8
 270 600 l 5
 270 -136 l 6
 270 -168 254 -200 222 -200 c 6
 94 -200 l 6
 61.974609375 -200 30 -168 30 -136 c 6
 30 24 l 5
 94 24 l 5
 94 -104 l 6
 94 -135.998046875 94.2080078125 -136 125.98828125 -136 c 0
 126 -136 l 6
 176.5 -136 l 6
 176.505859375 -136 l 0
 205.850585938 -136 206 -135.999023438 206 -104.966796875 c 0
 206 -104 l 5
 206 600 l 5xd8
EndSplineSet
EndChar

StartChar: K
Encoding: 75 75 42
Width: 332
VWidth: -400
Flags: W
HStem: -200 21G<30 93.5284 221.5 285.526> -200 21G<30 93.5284 221.5 285.526> 168 64<94 206.25> 580 20G<30 94 221.091 286> 580 20G<30 94 221.091 286>
VStem: 30 64<-200 168 232 600> 206 64<248 402> 222 64<-200 168 446 600>
LayerCount: 2
Fore
SplineSet
30 600 m 5xb6
 94 600 l 5
 94 248 l 6
 94 232 94 232 110 232 c 6
 190 232 l 6
 206.002929688 232 206 232 206 248 c 6xb6
 222 600 l 5
 286 600 l 5xb5
 270 248 l 5xb6
 238 216 l 5
 286 184 l 5
 285.5 -200 l 5
 221.5 -200 l 5
 222 152 l 6xb5
 222 168 222 168 206 168 c 6
 110 168 l 6
 94 168 94 168 94 152 c 6
 93.5 -200 l 5
 30 -200 l 5
 30 600 l 5xb6
EndSplineSet
EndChar

StartChar: L
Encoding: 76 76 43
Width: 284
VWidth: -200
Flags: HW
HStem: -200 64<94 254> 580 20G<30 94> 580 20G<30 94>
VStem: 30 64<-136 600>
LayerCount: 2
Fore
SplineSet
30 600 m 5xd0
 94 600 l 5
 94 -136 l 5
 254 -136 l 5
 254 -200 l 5
 30 -200 l 5
 30 600 l 5xd0
EndSplineSet
EndChar

StartChar: M
Encoding: 77 77 44
Width: 380
VWidth: -200
Flags: HW
HStem: -200 21G<30 94 286 350> -200 21G<30 94 286 350> 580 20G<30 83.8382 296.172 350> 580 20G<30 83.8382 296.172 350>
VStem: 30 64<-200 312> 30 48<576.02 600> 286 64<-200 312> 302 48<575.98 600>
LayerCount: 2
Fore
SplineSet
30 600 m 5xa4
 78 600 l 5
 190.09375 216 l 5
 302 600 l 5
 350 600 l 5xa5
 350 -200 l 5
 286 -200 l 5
 286 312 l 5
 190 56 l 5
 94 312 l 5
 94 -200 l 5
 30 -200 l 5xaa
 30 600 l 5xa4
EndSplineSet
EndChar

StartChar: N
Encoding: 78 78 45
Width: 380
VWidth: -200
Flags: HW
HStem: -200 21G<30 94.0312 279.806 350> -200 21G<30 94.0312 279.806 350> 580 20G<30 100.244 285.969 350> 580 20G<30 100.244 285.969 350>
VStem: 30 64.0312<-200 424 578.36 600> 285.969 64.0312<-200 -177.283 -24 600>
LayerCount: 2
Fore
SplineSet
30 600 m 5xac
 94.09375 600 l 5
 285.96875 -24 l 5
 285.96875 600 l 5
 350 600 l 5
 350 -200 l 5
 285.96875 -200 l 5
 93.6875 424 l 5
 94.03125 -200 l 5
 30 -200 l 5
 30 600 l 5xac
EndSplineSet
EndChar

StartChar: O
Encoding: 79 79 46
Width: 332
VWidth: -200
Flags: HW
HStem: -200 64<94.0711 237.929> 536.003 63.9965<94.048 237.963>
VStem: 30 64<-135.937 535.954> 238 64<-135.937 535.934>
LayerCount: 2
Fore
SplineSet
94 600 m 6
 206 600 l 5
 238 600 l 6
 270.025390625 600 302 568 302 536 c 6
 302 -136 l 6
 302 -168 270.025390625 -200 238 -200 c 6
 206 -200 l 5
 94 -200 l 6
 61.974609375 -200 30 -168 30 -136 c 6
 30 536 l 6
 30 568 61.974609375 600 94 600 c 6
120.28125 536 m 4
 94.4423828125 535.887695312 93.9990234375 534.125 93.9990234375 506.985351562 c 0
 93.9990234375 506.022460938 94 505.02734375 94 504 c 6
 94 -104 l 6
 94 -135.998046875 94.2099609375 -136 125.98828125 -136 c 0
 126 -136 l 6
 206 -136 l 6
 206.01171875 -136 l 0
 237.791992188 -136 238 -135.998046875 238 -104 c 6
 238 504 l 6
 238 505.03125 238.000976562 506.029296875 238.000976562 506.99609375 c 0
 238.000976562 535.76953125 237.500976562 536 206.739257812 536 c 0
 206 536 l 6
 126 536 l 6
 124.643554688 536 123.34765625 536.00390625 122.104492188 536.00390625 c 0
 121.483398438 536.00390625 120.875976562 536.002929688 120.28125 536 c 4
EndSplineSet
EndChar

StartChar: P
Encoding: 80 80 47
Width: 348
VWidth: -200
Flags: HW
HStem: -200 21G<30 93.734> -200 21G<30 93.734> 168 64<94.0273 253.792> 536.23 63.7702<94.0466 253.812>
VStem: 30 63.9375<-200 168 232.08 536.23> 253.875 64.125<232 535.938>
LayerCount: 2
Fore
SplineSet
30 600 m 5xbc
 254.03125 600 l 6
 286.015625 600 318 568 318 536 c 6
 318 232 l 6
 318 200 286 168 254 168 c 6
 94 168 l 5
 93.71875 -200 l 5
 30 -200 l 5
 30 600 l 5xbc
111.53125 536.21875 m 4
 110.258789062 536.1953125 109.061523438 536.125 107.9375 536 c 4
 94.4560546875 534.5 93.9375 528 93.9375 504 c 6
 93.9375 265 l 6
 93.9375 232.37109375 93.953125 232 125.9375 232 c 6
 239.90625 232 l 5
 253.387695312 233.4296875 253.875 240.119140625 253.875 263 c 6
 253.875 504 l 6
 253.875 504.09375 l 0
 253.875 536 253.859375 536 221.90625 536 c 6
 125.9375 536 l 6
 120.592773438 536 116.362304688 536.229492188 112.801757812 536.229492188 c 0
 112.368164062 536.229492188 111.9453125 536.2265625 111.53125 536.21875 c 4
EndSplineSet
EndChar

StartChar: Q
Encoding: 81 81 48
Width: 332
VWidth: -400
Flags: HW
HStem: -200 64<94.0711 237.929> 104 64<190 238> 536.003 63.9965<94.048 237.963>
VStem: 30 64<-135.937 535.954> 190 112<104 168> 238 64<-135.937 104 168 535.934>
LayerCount: 2
Fore
SplineSet
94 600 m 6xf4
 206 600 l 5
 238 600 l 6
 270.025390625 600 302 568 302 536 c 6
 302 -136 l 6
 302 -168 270.025390625 -200 238 -200 c 6
 206 -200 l 5
 94 -200 l 6
 61.974609375 -200 30 -168 30 -136 c 6
 30 536 l 6
 30 568 61.974609375 600 94 600 c 6xf4
120.28125 536 m 4
 94.4423828125 535.887695312 93.9990234375 534.125 93.9990234375 506.985351562 c 0
 93.9990234375 506.022460938 94 505.02734375 94 504 c 6
 94 -104 l 6
 94 -135.998046875 94.2099609375 -136 125.98828125 -136 c 0
 126 -136 l 6
 206 -136 l 6
 206.01171875 -136 l 0
 237.791992188 -136 238 -135.998046875 238 -104 c 6
 238 104 l 5xf4
 190 104 l 5
 190 168 l 5xf8
 238 168 l 5
 238 504 l 6
 238 505.03125 238.000976562 506.029296875 238.000976562 506.99609375 c 0
 238.000976562 535.76953125 237.500976562 536 206.739257812 536 c 0
 206 536 l 6
 126 536 l 6
 124.643554688 536 123.34765625 536.00390625 122.104492188 536.00390625 c 0
 121.483398438 536.00390625 120.875976562 536.002929688 120.28125 536 c 4
EndSplineSet
EndChar

StartChar: R
Encoding: 82 82 49
Width: 316
VWidth: -200
Flags: HW
HStem: -200 21G<30 93.7374 221.656 285.616> -200 21G<30 93.7374 221.656 285.616> 168 64<94.0584 221.789> 536.23 63.7702<94.0754 221.812>
VStem: 30 63.9762<-200 167.931 232.079 536.23> 221.656 63.9375<-200 167.943 232 535.938>
LayerCount: 2
Fore
SplineSet
30 600 m 5xbc
 222.03125 600 l 6
 254.015625 600 286 568 286 536 c 6
 285.6875 232 l 5
 238 200 l 5
 286 168 l 5
 285.59375 -200 l 5
 221.65625 -200 l 5
 221.96875 137 l 6
 221.969726562 137.686523438 221.969726562 138.358398438 221.969726562 139.014648438 c 0
 221.969726562 168 221.025390625 168 189.75 168 c 6
 126.03125 168 l 6
 96.6396484375 168 93.9765625 168 93.9765625 143.143554688 c 0
 93.9765625 140.680664062 94.001953125 137.974609375 94.03125 135 c 6
 93.71875 -200 l 5
 30 -200 l 5
 30 600 l 5xbc
111.53125 536.21875 m 4
 110.258789062 536.1953125 109.061523438 536.125 107.9375 536 c 4
 94.4560546875 534.5 93.96875 528 93.96875 504 c 6
 93.96875 265 l 6
 93.96875 264.904296875 l 0
 93.96875 232.370117188 93.984375 232 125.9375 232 c 6
 207.90625 232 l 5
 221.387695312 233.4296875 221.875 240.119140625 221.875 263 c 6
 221.875 504 l 6
 221.875 504.09375 l 0
 221.875 536 221.859375 536 189.90625 536 c 6
 125.9375 536 l 6
 120.592773438 536 116.362304688 536.229492188 112.801757812 536.229492188 c 0
 112.368164062 536.229492188 111.9453125 536.2265625 111.53125 536.21875 c 4
EndSplineSet
EndChar

StartChar: S
Encoding: 83 83 50
Width: 316
VWidth: -200
Flags: HW
HStem: -200 64<94.0653 222.062> 168 64<94.2815 222.062> 536 64<94.2815 221.997>
VStem: 30 64.2188<-135.937 -40 232.062 535.938> 222.125 63.5625<-135.938 167.937 440 535.937>
CounterMasks: 1 e0
LayerCount: 2
Fore
SplineSet
93.9375 600 m 6
 221.75 600 l 6
 253.71484375 600 285.6875 568 285.6875 536 c 6
 286 440 l 5
 222.09375 440 l 5
 222.09375 503.875 l 6
 221.98828125 535.999023438 222 536 190.005859375 536 c 0
 190 536 l 6
 126.1875 536 l 6
 94.2255859375 536 94.21875 536 94.21875 504 c 6
 94.21875 312 l 5
 94.21875 264 l 6
 94.21875 232 94.2255859375 232 126.1875 232 c 6
 221.75 232 l 6
 253.71484375 232 285.6875 200 285.6875 168 c 6
 285.6875 -136 l 6
 285.6875 -168 253.71484375 -200 221.75 -200 c 6
 93.9375 -200 l 6
 61.97265625 -200 30 -168 30 -136 c 6
 30.3125 -40 l 5
 94.21875 -40 l 5
 94 -104 l 6
 94 -136 94.0166015625 -135.999023438 127.09375 -136 c 6
 190.15625 -136 l 6
 222.12109375 -136 222.125 -136 222.125 -104 c 6
 222.125 -72 l 5
 222.125 -24 l 5
 222.125 136 l 6
 222.125 167.999023438 222.12109375 168 190.162109375 168 c 0
 190.15625 168 l 6
 93.9375 168 l 6
 61.97265625 168 30 200 30 232 c 6
 30 536 l 6
 30 568 61.97265625 600 93.9375 600 c 6
EndSplineSet
EndChar

StartChar: T
Encoding: 84 84 51
Width: 348
VWidth: -200
Flags: HW
HStem: -200 21G<142 206> -200 21G<142 206> 536 64<30 142 206 318>
VStem: 142 64<-200 536>
LayerCount: 2
Fore
SplineSet
30 600 m 5xb0
 318 600 l 5
 318 536 l 5
 206 536 l 5
 206 -200 l 5
 142 -200 l 5
 142 536 l 5
 30 536 l 5
 30 600 l 5xb0
EndSplineSet
EndChar

StartChar: U
Encoding: 85 85 52
Width: 316
VWidth: -200
Flags: HW
HStem: -200 64<94.0711 221.929> 580 20G<30 94 222 286> 580 20G<30 94 222 286>
VStem: 30 64<-135.937 600> 222 64<-135.937 600>
LayerCount: 2
Fore
SplineSet
30 600 m 5xd8
 94 600 l 5
 94 -104 l 6
 94 -135.998046875 94.2099609375 -136 125.98828125 -136 c 0
 126 -136 l 6
 190 -136 l 6
 190.01171875 -136 l 0
 221.791992188 -136 222 -135.998046875 222 -104 c 6
 222 600 l 5
 286 600 l 5
 286 -136 l 6
 285.65234375 -167.998046875 254.025390625 -200 222 -200 c 6
 174 -200 l 5
 94 -200 l 6
 61.974609375 -200 30 -168 30 -136 c 6
 30 600 l 5xd8
EndSplineSet
EndChar

StartChar: V
Encoding: 86 86 53
Width: 412
VWidth: -200
Flags: HW
HStem: -200 21G<170.4 241.6> -200 21G<170.4 241.6> 580 20G<30 97.5443 314.456 382> 580 20G<30 97.5443 314.456 382>
LayerCount: 2
Fore
SplineSet
30 600 m 5xa0
 94 600 l 5
 206 -32 l 5
 318 600 l 5
 382 600 l 5
 238 -200 l 5
 174 -200 l 5
 30 600 l 5xa0
EndSplineSet
EndChar

StartChar: W
Encoding: 87 87 54
Width: 380
VWidth: -200
Flags: HW
HStem: -200 21G<30 83.8382 296.172 350> -200 21G<30 83.8382 296.172 350> 580 20G<30 94 286 350> 580 20G<30 94 286 350>
VStem: 30 64<88 600> 30 48<-200 -176.02> 286 64<88 600> 302 48<-200 -175.98>
LayerCount: 2
Fore
SplineSet
30 600 m 5xa8
 94 600 l 5
 94 88 l 5
 190 344 l 5
 286 88 l 5
 286 600 l 5
 350 600 l 5xaa
 350 -200 l 5
 302 -200 l 5
 190.09375 184 l 5
 78 -200 l 5
 30 -200 l 5xa5
 30 600 l 5xa8
EndSplineSet
EndChar

StartChar: backslash
Encoding: 92 92 55
Width: 299
VWidth: -200
Flags: HW
HStem: -200.031 21G<201.6 269> -200.031 21G<201.6 269> 579.969 20G<30 97.4> 579.969 20G<30 97.4>
VStem: 30 239
LayerCount: 2
Fore
SplineSet
30 599.96875 m 5xa8
 93 599.96875 l 5
 269 -200.03125 l 5
 206 -200.03125 l 5
 30 599.96875 l 5xa8
EndSplineSet
EndChar

StartChar: X
Encoding: 88 88 56
Width: 380
VWidth: -200
Flags: HW
HStem: -200 21G<30 99.7143 280.286 350> -200 21G<30 99.7143 280.286 350> 580 20G<30 99.2174 280.783 350> 580 20G<30 99.2174 280.783 350>
VStem: 30 64<-200 -175.5>
LayerCount: 2
Fore
SplineSet
30 600 m 5xa8
 94 600 l 5
 190 232 l 5
 286 600 l 5
 350 600 l 5
 254 184 l 5
 350 -200 l 5
 286 -200 l 5
 190 136 l 5
 94 -200 l 5
 30 -200 l 5
 126 184 l 5
 30 600 l 5xa8
EndSplineSet
EndChar

StartChar: Y
Encoding: 89 89 57
Width: 412
VWidth: -200
Flags: HW
HStem: -200 21G<174 238> -200 21G<174 238> 580 20G<30 100.087 311.913 382> 580 20G<30 100.087 311.913 382>
VStem: 30 64<577 600> 174 64<-200 143.333> 318 64<577 600>
CounterMasks: 1 0e
LayerCount: 2
Fore
SplineSet
30 600 m 5xae
 94 600 l 5
 206 232 l 5
 318 600 l 5
 382 600 l 5
 238 120 l 5
 238 56 l 5
 238 -200 l 5
 174 -200 l 5
 174 56 l 5
 174 120 l 5
 30 600 l 5xae
EndSplineSet
EndChar

StartChar: w
Encoding: 119 119 58
Width: 380
VWidth: -200
Flags: HW
HStem: -200 21G<30 83.8382 296.172 350> -200 21G<30 83.8382 296.172 350> 580 20G<30 94 286 350> 580 20G<30 94 286 350>
VStem: 30 64<88 600> 30 48<-200 -176.02> 286 64<88 600> 302 48<-200 -175.98>
LayerCount: 2
Fore
SplineSet
30 600 m 5xa8
 94 600 l 5
 94 88 l 5
 190 344 l 5
 286 88 l 5
 286 600 l 5
 350 600 l 5xaa
 350 -200 l 5
 302 -200 l 5
 190.09375 184 l 5
 78 -200 l 5
 30 -200 l 5xa5
 30 600 l 5xa8
EndSplineSet
EndChar

StartChar: Z
Encoding: 90 90 59
Width: 316
VWidth: -200
Flags: HW
HStem: -200 64<117 286> 536 64<30 199>
VStem: 30 256<-200 -169.515 569.515 600>
LayerCount: 2
Fore
SplineSet
30 600 m 5
 190 600 l 5
 286 600 l 5
 117 -136 l 5
 286 -136 l 5
 286 -200 l 5
 94 -200 l 5
 30 -200 l 5
 199 536 l 5
 30 536 l 5
 30 600 l 5
EndSplineSet
EndChar

StartChar: bracketleft
Encoding: 91 91 60
Width: 204
VWidth: -200
Flags: HW
HStem: -200 64<94 174> 536 64<94 174>
VStem: 30 144<-200 -136 536 600> 30 64<-136 536>
LayerCount: 2
Fore
SplineSet
30 600 m 5xe0
 174 600 l 5
 174 536 l 5xe0
 94 536 l 5
 94 -136 l 5xd0
 174 -136 l 5
 174 -200 l 5
 30 -200 l 5
 30 600 l 5xe0
EndSplineSet
EndChar

StartChar: bracketright
Encoding: 93 93 61
Width: 204
VWidth: -200
Flags: HW
HStem: -400 96<10 105.999> 304 96<10 105.999>
VStem: 10 191.999<-400 -304 304 400> 105.999 96<-304 304>
LayerCount: 2
Fore
SplineSet
30 600 m 5xe0
 174 600 l 5
 174 -200 l 5
 30 -200 l 5
 30 -136 l 5xe0
 110 -136 l 5
 110 536 l 5xd0
 30 536 l 5
 30 600 l 5xe0
EndSplineSet
EndChar

StartChar: asciicircum
Encoding: 94 94 62
Width: 424
VWidth: -200
Flags: HW
HStem: 376 224
LayerCount: 2
Fore
SplineSet
30 388 m 5
 166 600 l 5
 257 600 l 5
 394 388 l 5
 318 388 l 5
 212 555 l 5
 106 388 l 5
 30 388 l 5
44 376 m 5
EndSplineSet
EndChar

StartChar: underscore
Encoding: 95 95 63
Width: 428
VWidth: -200
Flags: HW
HStem: -200 64<30 398>
LayerCount: 2
Fore
SplineSet
30 -136 m 5
 398 -136 l 5
 398 -200 l 5
 30 -200 l 5
 30 -136 l 5
EndSplineSet
EndChar

StartChar: grave
Encoding: 96 96 64
Width: 172
VWidth: -200
Flags: HW
HStem: 456 144<78 94>
VStem: 30 112
LayerCount: 2
Fore
SplineSet
30 600 m 5
 94 600 l 5
 142 456 l 5
 78 456 l 5
 30 600 l 5
EndSplineSet
EndChar

StartChar: a
Encoding: 97 97 65
Width: 412
VWidth: -200
Flags: HW
HStem: -200 21G<30 96.8309 315.169 382> -200 21G<30 96.8309 315.169 382> 72 48<145 267> 580 20G<154.8 257.2> 580 20G<154.8 257.2>
LayerCount: 2
Fore
SplineSet
158 600 m 5xb0
 254 600 l 5
 382 -200 l 5
 318 -200 l 5
 279.5 72 l 5
 132.5 72 l 5
 94 -200 l 5
 30 -200 l 5
 158 600 l 5xb0
206 520 m 5
 145 120 l 5
 267 120 l 5
 206 520 l 5
EndSplineSet
EndChar

StartChar: b
Encoding: 98 98 66
Width: 347
VWidth: -200
Flags: HW
HStem: -200 64<94.0177 253.875> 168.003 63.9965<94.0581 253.865> 536.003 63.9965<93.9309 253.875>
VStem: 30 63.9688<-135.94 167.951 232.08 535.94> 253.938 63.9688<-135.938 167.939 232.061 535.938>
LayerCount: 2
Fore
SplineSet
30 600 m 5
 253.90625 600 l 6
 285.90625 600 317.90625 568 317.90625 536 c 6
 317.6875 232 l 5
 269.90625 200 l 5
 317.90625 168 l 5
 317.90625 -136 l 6
 317.90625 -168 285.90625 -200 253.90625 -200 c 6
 30 -200 l 5
 30 600 l 5
120.28125 536 m 4
 96.220703125 535.89453125 93.9140625 534.346679688 93.9140625 511.908203125 c 0
 93.9140625 509.516601562 93.939453125 506.888671875 93.96875 504 c 6
 93.96875 265 l 6
 93.96875 232.37109375 93.9755859375 232 125.96875 232 c 6
 221.71875 232 l 6
 253.62890625 232 253.9375 232 253.9375 263 c 6
 253.9375 504 l 6
 253.9375 536 253.930664062 536 221.9375 536 c 6
 125.96875 536 l 6
 124.622070312 536 123.33203125 536.00390625 122.095703125 536.00390625 c 0
 121.477539062 536.00390625 120.873046875 536.002929688 120.28125 536 c 4
120.28125 168 m 4
 94.2353515625 167.881835938 93.96875 166.016601562 93.96875 136.8671875 c 0
 93.96875 136.256835938 93.96875 135.634765625 93.96875 135 c 6
 93.96875 -104 l 6
 93.96875 -105.334960938 l 0
 93.96875 -136 94.1923828125 -136 125.96875 -136 c 6
 221.9375 -136 l 6
 253.930664062 -136 253.9375 -136 253.9375 -104 c 6
 253.9375 137 l 6
 253.9375 168 253.711914062 168 221.71875 168 c 6
 125.96875 168 l 6
 124.622070312 168 123.331054688 168.00390625 122.094726562 168.00390625 c 0
 121.4765625 168.00390625 120.872070312 168.002929688 120.28125 168 c 4
EndSplineSet
EndChar

StartChar: c
Encoding: 99 99 67
Width: 316
VWidth: -200
Flags: HW
HStem: -200 64<94.0611 222> 535.906 63.9688<94.0625 222>
VStem: 30 64<-135.927 535.836> 222 64<-136 -40.0312 472 536>
LayerCount: 2
Fore
SplineSet
222 600 m 6
 222.047851562 600 l 0
 254.032226562 600 286 567.984375 286 536 c 6
 286 472 l 5
 222 472 l 5
 222 536 l 5
 126 535.90625 l 6
 94 535.879882812 94 535.90234375 94 503.90625 c 6
 94 -104 l 6
 94 -135.75390625 94 -136 125.267578125 -136 c 0
 126 -136 l 6
 222 -136 l 5
 222 -40.03125 l 5
 286 -40 l 5
 286 -136 l 6
 286 -168 254 -200 222 -200 c 6
 94 -200 l 6
 62 -199.998046875 30 -168 30 -136 c 6
 30 536 l 6
 30 567.936523438 61.873046875 599.875 93.80859375 599.875 c 0
 94 599.875 l 6
 222 600 l 6
EndSplineSet
EndChar

StartChar: d
Encoding: 100 100 68
Width: 316
VWidth: -200
Flags: HW
HStem: -200 64<93.9018 221.844> 536.003 63.9965<93.8122 221.869>
VStem: 30 63.8438<-135.958 535.961> 221.906 64.0938<-135.938 535.937>
LayerCount: 2
Fore
SplineSet
30 600 m 5
 221.9375 600 l 6
 253.962890625 600 286 568 286 536 c 6
 286 -136 l 6
 286 -168 253.962890625 -200 221.9375 -200 c 6
 30 -200 l 5
 30 600 l 5
119.84375 536 m 4
 95.36328125 535.896484375 93.810546875 534.447265625 93.810546875 514.111328125 c 0
 93.810546875 511.157226562 93.84375 507.8046875 93.84375 504 c 6
 93.84375 -104 l 6
 93.84375 -135.999023438 93.84765625 -136 123.494140625 -136 c 0
 123.5 -136 l 6
 190.125 -136 l 6
 190.13671875 -136 l 0
 221.897460938 -136 221.90625 -135.998046875 221.90625 -104.052734375 c 0
 221.90625 -104 l 5
 221.90625 504 l 6
 221.90625 505.03125 221.907226562 506.029296875 221.907226562 506.99609375 c 0
 221.907226562 535.8359375 221.405273438 536 190.430664062 536 c 0
 189.90625 536 l 6
 125.875 536 l 6
 124.444335938 536 123.071289062 536.00390625 121.76171875 536.00390625 c 0
 121.106445312 536.00390625 120.466796875 536.002929688 119.84375 536 c 4
EndSplineSet
EndChar

StartChar: e
Encoding: 101 101 69
Width: 300
VWidth: -200
Flags: HW
HStem: -200 64<94 270> 168 64<94 270> 536 64<94 270>
VStem: 30 240<-200 -136 168 232 536 600> 30 64<-136 168 232 536>
CounterMasks: 1 e0
LayerCount: 2
Fore
SplineSet
30 600 m 5xf0
 270 600 l 5
 270 536 l 5xf0
 94 536 l 5
 94 232 l 5xe8
 270 232 l 5
 270 168 l 5xf0
 94 168 l 5
 94 -136 l 5xe8
 270 -136 l 5
 270 -200 l 5
 30 -200 l 5
 30 600 l 5xf0
EndSplineSet
EndChar

StartChar: f
Encoding: 102 102 70
Width: 300
VWidth: -200
Flags: HW
HStem: -200 21G<30 94> -200 21G<30 94> 168 64<94 270> 536 64<94 270>
VStem: 30 64<-200 168 232 536>
LayerCount: 2
Fore
SplineSet
30 600 m 5xb8
 270 600 l 5
 270 536 l 5
 94 536 l 5
 94 232 l 5
 270 232 l 5
 270 168 l 5
 94 168 l 5
 94 -104 l 5
 94 -200 l 5
 30 -200 l 5
 30 600 l 5xb8
EndSplineSet
EndChar

StartChar: g
Encoding: 103 103 71
Width: 332
VWidth: -200
Flags: HW
HStem: -200 64<94.0611 238> 168 64<174 238> 535.906 63.9688<94.0625 238>
VStem: 30 64<-135.927 535.837> 174 128<168 232> 238 64<-136 167.969 440 536>
LayerCount: 2
Fore
SplineSet
238 600 m 6xf4
 238.041992188 600 l 0
 270.029296875 600 302 567.987304688 302 536 c 6
 302 440 l 5
 238 440 l 5
 238 536 l 5
 126 535.90625 l 6
 94.0009765625 535.883789062 94 535.90234375 94 503.912109375 c 0
 94 503.90625 l 6
 94 -104 l 6
 94 -104.005859375 l 0
 94 -135.75390625 94.0009765625 -136 125.267578125 -136 c 0
 126 -136 l 6
 238 -136 l 5
 238 167.96875 l 5xf4
 174 168 l 5
 174 232 l 5
 302 232 l 5xf8
 302 -136 l 6
 302 -168.000976562 270.000976562 -200 238 -200 c 6
 94 -200 l 6
 61.9990234375 -199.998046875 30 -168.000976562 30 -136 c 6
 30 536 l 6
 30 567.936523438 61.87109375 599.875 93.8076171875 599.875 c 0
 94 599.875 l 6
 238 600 l 6xf4
EndSplineSet
EndChar

StartChar: h
Encoding: 104 104 72
Width: 308
VWidth: -200
Flags: W
HStem: -200 21G<30 94 214 278> -200 21G<30 94 214 278> 168 64<94 214> 580 20G<30 94 214 278> 580 20G<30 94 214 278>
VStem: 30 64<-200 168 232 600> 214 64<-200 168 232 600>
LayerCount: 2
Fore
SplineSet
30 600 m 5xb6
 94 600 l 5
 94 232 l 5
 214 232 l 5
 214 600 l 5
 278 600 l 5
 278 -200 l 5
 214 -200 l 5
 214 168 l 5
 94 168 l 5
 94 -200 l 5
 30 -200 l 5
 30 600 l 5xb6
EndSplineSet
EndChar

StartChar: i
Encoding: 105 105 73
Width: 124
VWidth: -200
Flags: HW
HStem: -200 21G<30 94> -200 21G<30 94> 580 20G<30 94> 580 20G<30 94>
VStem: 30 64<-200 600>
LayerCount: 2
Fore
SplineSet
30 600 m 5xa8
 94 600 l 5
 94 -200 l 5
 30 -200 l 5
 30 600 l 5xa8
EndSplineSet
EndChar

StartChar: j
Encoding: 106 106 74
Width: 300
VWidth: -200
Flags: HW
HStem: -200 64<94.071 205.957> 580 20G<206 270> 580 20G<206 270>
VStem: 30 64<-135.937 24> 206 64<-135.974 600>
LayerCount: 2
Fore
SplineSet
206 600 m 5xd8
 270 600 l 5
 270 -136 l 6
 270 -168 254 -200 222 -200 c 6
 94 -200 l 6
 61.974609375 -200 30 -168 30 -136 c 6
 30 24 l 5
 94 24 l 5
 94 -104 l 6
 94 -135.998046875 94.2080078125 -136 125.98828125 -136 c 0
 126 -136 l 6
 176.5 -136 l 6
 176.505859375 -136 l 0
 205.850585938 -136 206 -135.999023438 206 -104.966796875 c 0
 206 -104 l 5
 206 600 l 5xd8
EndSplineSet
EndChar

StartChar: k
Encoding: 107 107 75
Width: 332
VWidth: -400
Flags: W
HStem: -200 21G<30 93.5284 221.5 285.526> -200 21G<30 93.5284 221.5 285.526> 168 64<94 206.25> 580 20G<30 94 221.091 286> 580 20G<30 94 221.091 286>
VStem: 30 64<-200 168 232 600> 206 64<248 402> 222 64<-200 168 446 600>
LayerCount: 2
Fore
SplineSet
30 600 m 5xb6
 94 600 l 5
 94 248 l 6
 94 232 94 232 110 232 c 6
 190 232 l 6
 206.002929688 232 206 232 206 248 c 6xb6
 222 600 l 5
 286 600 l 5xb5
 270 248 l 5xb6
 238 216 l 5
 286 184 l 5
 285.5 -200 l 5
 221.5 -200 l 5
 222 152 l 6xb5
 222 168 222 168 206 168 c 6
 110 168 l 6
 94 168 94 168 94 152 c 6
 93.5 -200 l 5
 30 -200 l 5
 30 600 l 5xb6
EndSplineSet
EndChar

StartChar: l
Encoding: 108 108 76
Width: 284
VWidth: -200
Flags: HW
HStem: -200 64<94 254> 580 20G<30 94> 580 20G<30 94>
VStem: 30 64<-136 600>
LayerCount: 2
Fore
SplineSet
30 600 m 5xd0
 94 600 l 5
 94 -136 l 5
 254 -136 l 5
 254 -200 l 5
 30 -200 l 5
 30 600 l 5xd0
EndSplineSet
EndChar

StartChar: m
Encoding: 109 109 77
Width: 380
VWidth: -200
Flags: HW
HStem: -200 21G<30 94 286 350> -200 21G<30 94 286 350> 580 20G<30 83.8382 296.172 350> 580 20G<30 83.8382 296.172 350>
VStem: 30 64<-200 312> 30 48<576.02 600> 286 64<-200 312> 302 48<575.98 600>
LayerCount: 2
Fore
SplineSet
30 600 m 5xa4
 78 600 l 5
 190.09375 216 l 5
 302 600 l 5
 350 600 l 5xa5
 350 -200 l 5
 286 -200 l 5
 286 312 l 5
 190 56 l 5
 94 312 l 5
 94 -200 l 5
 30 -200 l 5xaa
 30 600 l 5xa4
EndSplineSet
EndChar

StartChar: n
Encoding: 110 110 78
Width: 380
VWidth: -200
Flags: HW
HStem: -200 21G<30 94.0312 279.806 350> -200 21G<30 94.0312 279.806 350> 580 20G<30 100.244 285.969 350> 580 20G<30 100.244 285.969 350>
VStem: 30 64.0312<-200 424 578.36 600> 285.969 64.0312<-200 -177.283 -24 600>
LayerCount: 2
Fore
SplineSet
30 600 m 5xac
 94.09375 600 l 5
 285.96875 -24 l 5
 285.96875 600 l 5
 350 600 l 5
 350 -200 l 5
 285.96875 -200 l 5
 93.6875 424 l 5
 94.03125 -200 l 5
 30 -200 l 5
 30 600 l 5xac
EndSplineSet
EndChar

StartChar: o
Encoding: 111 111 79
Width: 332
VWidth: -200
Flags: HW
HStem: -200 64<94.0711 237.929> 536.003 63.9965<94.048 237.963>
VStem: 30 64<-135.937 535.954> 238 64<-135.937 535.934>
LayerCount: 2
Fore
SplineSet
94 600 m 6
 206 600 l 5
 238 600 l 6
 270.025390625 600 302 568 302 536 c 6
 302 -136 l 6
 302 -168 270.025390625 -200 238 -200 c 6
 206 -200 l 5
 94 -200 l 6
 61.974609375 -200 30 -168 30 -136 c 6
 30 536 l 6
 30 568 61.974609375 600 94 600 c 6
120.28125 536 m 4
 94.4423828125 535.887695312 93.9990234375 534.125 93.9990234375 506.985351562 c 0
 93.9990234375 506.022460938 94 505.02734375 94 504 c 6
 94 -104 l 6
 94 -135.998046875 94.2099609375 -136 125.98828125 -136 c 0
 126 -136 l 6
 206 -136 l 6
 206.01171875 -136 l 0
 237.791992188 -136 238 -135.998046875 238 -104 c 6
 238 504 l 6
 238 505.03125 238.000976562 506.029296875 238.000976562 506.99609375 c 0
 238.000976562 535.76953125 237.500976562 536 206.739257812 536 c 0
 206 536 l 6
 126 536 l 6
 124.643554688 536 123.34765625 536.00390625 122.104492188 536.00390625 c 0
 121.483398438 536.00390625 120.875976562 536.002929688 120.28125 536 c 4
EndSplineSet
EndChar

StartChar: p
Encoding: 112 112 80
Width: 348
VWidth: -200
Flags: HW
HStem: -200 21G<30 93.734> -200 21G<30 93.734> 168 64<94.0273 253.792> 536.23 63.7702<94.0466 253.812>
VStem: 30 63.9375<-200 168 232.08 536.23> 253.875 64.125<232 535.938>
LayerCount: 2
Fore
SplineSet
30 600 m 5xbc
 254.03125 600 l 6
 286.015625 600 318 568 318 536 c 6
 318 232 l 6
 318 200 286 168 254 168 c 6
 94 168 l 5
 93.71875 -200 l 5
 30 -200 l 5
 30 600 l 5xbc
111.53125 536.21875 m 4
 110.258789062 536.1953125 109.061523438 536.125 107.9375 536 c 4
 94.4560546875 534.5 93.9375 528 93.9375 504 c 6
 93.9375 265 l 6
 93.9375 232.37109375 93.953125 232 125.9375 232 c 6
 239.90625 232 l 5
 253.387695312 233.4296875 253.875 240.119140625 253.875 263 c 6
 253.875 504 l 6
 253.875 504.09375 l 0
 253.875 536 253.859375 536 221.90625 536 c 6
 125.9375 536 l 6
 120.592773438 536 116.362304688 536.229492188 112.801757812 536.229492188 c 0
 112.368164062 536.229492188 111.9453125 536.2265625 111.53125 536.21875 c 4
EndSplineSet
EndChar

StartChar: q
Encoding: 113 113 81
Width: 332
VWidth: -400
Flags: HW
HStem: -200 64<94.0711 237.929> 104 64<190 238> 536.003 63.9965<94.048 237.963>
VStem: 30 64<-135.937 535.954> 190 112<104 168> 238 64<-135.937 104 168 535.934>
LayerCount: 2
Fore
SplineSet
94 600 m 6xf4
 206 600 l 5
 238 600 l 6
 270.025390625 600 302 568 302 536 c 6
 302 -136 l 6
 302 -168 270.025390625 -200 238 -200 c 6
 206 -200 l 5
 94 -200 l 6
 61.974609375 -200 30 -168 30 -136 c 6
 30 536 l 6
 30 568 61.974609375 600 94 600 c 6xf4
120.28125 536 m 4
 94.4423828125 535.887695312 93.9990234375 534.125 93.9990234375 506.985351562 c 0
 93.9990234375 506.022460938 94 505.02734375 94 504 c 6
 94 -104 l 6
 94 -135.998046875 94.2099609375 -136 125.98828125 -136 c 0
 126 -136 l 6
 206 -136 l 6
 206.01171875 -136 l 0
 237.791992188 -136 238 -135.998046875 238 -104 c 6
 238 104 l 5xf4
 190 104 l 5
 190 168 l 5xf8
 238 168 l 5
 238 504 l 6
 238 505.03125 238.000976562 506.029296875 238.000976562 506.99609375 c 0
 238.000976562 535.76953125 237.500976562 536 206.739257812 536 c 0
 206 536 l 6
 126 536 l 6
 124.643554688 536 123.34765625 536.00390625 122.104492188 536.00390625 c 0
 121.483398438 536.00390625 120.875976562 536.002929688 120.28125 536 c 4
EndSplineSet
EndChar

StartChar: r
Encoding: 114 114 82
Width: 316
VWidth: -200
Flags: HW
HStem: -200 21G<30 93.7374 221.656 285.616> -200 21G<30 93.7374 221.656 285.616> 168 64<94.0584 221.789> 536.23 63.7702<94.0754 221.812>
VStem: 30 63.9762<-200 167.931 232.079 536.23> 221.656 63.9375<-200 167.943 232 535.938>
LayerCount: 2
Fore
SplineSet
30 600 m 5xbc
 222.03125 600 l 6
 254.015625 600 286 568 286 536 c 6
 285.6875 232 l 5
 238 200 l 5
 286 168 l 5
 285.59375 -200 l 5
 221.65625 -200 l 5
 221.96875 137 l 6
 221.969726562 137.686523438 221.969726562 138.358398438 221.969726562 139.014648438 c 0
 221.969726562 168 221.025390625 168 189.75 168 c 6
 126.03125 168 l 6
 96.6396484375 168 93.9765625 168 93.9765625 143.143554688 c 0
 93.9765625 140.680664062 94.001953125 137.974609375 94.03125 135 c 6
 93.71875 -200 l 5
 30 -200 l 5
 30 600 l 5xbc
111.53125 536.21875 m 4
 110.258789062 536.1953125 109.061523438 536.125 107.9375 536 c 4
 94.4560546875 534.5 93.96875 528 93.96875 504 c 6
 93.96875 265 l 6
 93.96875 264.904296875 l 0
 93.96875 232.370117188 93.984375 232 125.9375 232 c 6
 207.90625 232 l 5
 221.387695312 233.4296875 221.875 240.119140625 221.875 263 c 6
 221.875 504 l 6
 221.875 504.09375 l 0
 221.875 536 221.859375 536 189.90625 536 c 6
 125.9375 536 l 6
 120.592773438 536 116.362304688 536.229492188 112.801757812 536.229492188 c 0
 112.368164062 536.229492188 111.9453125 536.2265625 111.53125 536.21875 c 4
EndSplineSet
EndChar

StartChar: s
Encoding: 115 115 83
Width: 316
VWidth: -200
Flags: HW
HStem: -200 64<94.0653 222.062> 168 64<94.2815 222.062> 536 64<94.2815 221.997>
VStem: 30 64.2188<-135.937 -40 232.062 535.938> 222.125 63.5625<-135.938 167.937 440 535.937>
CounterMasks: 1 e0
LayerCount: 2
Fore
SplineSet
93.9375 600 m 6
 221.75 600 l 6
 253.71484375 600 285.6875 568 285.6875 536 c 6
 286 440 l 5
 222.09375 440 l 5
 222.09375 503.875 l 6
 221.98828125 535.999023438 222 536 190.005859375 536 c 0
 190 536 l 6
 126.1875 536 l 6
 94.2255859375 536 94.21875 536 94.21875 504 c 6
 94.21875 312 l 5
 94.21875 264 l 6
 94.21875 232 94.2255859375 232 126.1875 232 c 6
 221.75 232 l 6
 253.71484375 232 285.6875 200 285.6875 168 c 6
 285.6875 -136 l 6
 285.6875 -168 253.71484375 -200 221.75 -200 c 6
 93.9375 -200 l 6
 61.97265625 -200 30 -168 30 -136 c 6
 30.3125 -40 l 5
 94.21875 -40 l 5
 94 -104 l 6
 94 -136 94.0166015625 -135.999023438 127.09375 -136 c 6
 190.15625 -136 l 6
 222.12109375 -136 222.125 -136 222.125 -104 c 6
 222.125 -72 l 5
 222.125 -24 l 5
 222.125 136 l 6
 222.125 167.999023438 222.12109375 168 190.162109375 168 c 0
 190.15625 168 l 6
 93.9375 168 l 6
 61.97265625 168 30 200 30 232 c 6
 30 536 l 6
 30 568 61.97265625 600 93.9375 600 c 6
EndSplineSet
EndChar

StartChar: t
Encoding: 116 116 84
Width: 348
VWidth: -200
Flags: HW
HStem: -200 21G<142 206> -200 21G<142 206> 536 64<30 142 206 318>
VStem: 142 64<-200 536>
LayerCount: 2
Fore
SplineSet
30 600 m 5xb0
 318 600 l 5
 318 536 l 5
 206 536 l 5
 206 -200 l 5
 142 -200 l 5
 142 536 l 5
 30 536 l 5
 30 600 l 5xb0
EndSplineSet
EndChar

StartChar: u
Encoding: 117 117 85
Width: 316
VWidth: -200
Flags: HW
HStem: -200 64<94.0711 221.929> 580 20G<30 94 222 286> 580 20G<30 94 222 286>
VStem: 30 64<-135.937 600> 222 64<-135.937 600>
LayerCount: 2
Fore
SplineSet
30 600 m 5xd8
 94 600 l 5
 94 -104 l 6
 94 -135.998046875 94.2099609375 -136 125.98828125 -136 c 0
 126 -136 l 6
 190 -136 l 6
 190.01171875 -136 l 0
 221.791992188 -136 222 -135.998046875 222 -104 c 6
 222 600 l 5
 286 600 l 5
 286 -136 l 6
 285.65234375 -167.998046875 254.025390625 -200 222 -200 c 6
 174 -200 l 5
 94 -200 l 6
 61.974609375 -200 30 -168 30 -136 c 6
 30 600 l 5xd8
EndSplineSet
EndChar

StartChar: v
Encoding: 118 118 86
Width: 412
VWidth: -200
Flags: HW
HStem: -200 21G<170.4 241.6> -200 21G<170.4 241.6> 580 20G<30 97.5443 314.456 382> 580 20G<30 97.5443 314.456 382>
LayerCount: 2
Fore
SplineSet
30 600 m 5xa0
 94 600 l 5
 206 -32 l 5
 318 600 l 5
 382 600 l 5
 238 -200 l 5
 174 -200 l 5
 30 600 l 5xa0
EndSplineSet
EndChar

StartChar: x
Encoding: 120 120 87
Width: 380
VWidth: -200
Flags: HW
HStem: -200 21G<30 99.7143 280.286 350> -200 21G<30 99.7143 280.286 350> 580 20G<30 99.2174 280.783 350> 580 20G<30 99.2174 280.783 350>
VStem: 30 64<-200 -175.5>
LayerCount: 2
Fore
SplineSet
30 600 m 5xa8
 94 600 l 5
 190 232 l 5
 286 600 l 5
 350 600 l 5
 254 184 l 5
 350 -200 l 5
 286 -200 l 5
 190 136 l 5
 94 -200 l 5
 30 -200 l 5
 126 184 l 5
 30 600 l 5xa8
EndSplineSet
EndChar

StartChar: y
Encoding: 121 121 88
Width: 412
VWidth: -200
Flags: HW
HStem: -200 21G<174 238> -200 21G<174 238> 580 20G<30 100.087 311.913 382> 580 20G<30 100.087 311.913 382>
VStem: 30 64<577 600> 174 64<-200 143.333> 318 64<577 600>
LayerCount: 2
Fore
SplineSet
30 600 m 5xae
 94 600 l 5
 206 232 l 5
 318 600 l 5
 382 600 l 5
 238 120 l 5
 238 56 l 5
 238 -200 l 5
 174 -200 l 5
 174 56 l 5
 174 120 l 5
 30 600 l 5xae
EndSplineSet
EndChar

StartChar: z
Encoding: 122 122 89
Width: 316
VWidth: -200
Flags: HW
HStem: -200 64<117 286> 536 64<30 199>
VStem: 30 256<-200 -169.515 569.515 600>
LayerCount: 2
Fore
SplineSet
30 600 m 5
 190 600 l 5
 286 600 l 5
 117 -136 l 5
 286 -136 l 5
 286 -200 l 5
 94 -200 l 5
 30 -200 l 5
 199 536 l 5
 30 536 l 5
 30 600 l 5
EndSplineSet
EndChar

StartChar: braceleft
Encoding: 123 123 90
Width: 252
VWidth: -200
Flags: HW
HStem: -200 64<94 222> 536 64<94 222>
VStem: 30 64<-136 152 216 536>
LayerCount: 2
Fore
SplineSet
94 600 m 6
 222 600 l 5
 222 536 l 5
 94 536 l 5
 94 189 l 5
 94 174 l 5
 94 -136 l 5
 222 -136 l 5
 222 -200 l 5
 94 -200 l 6
 93.9697265625 -200 l 0
 61.9794921875 -200 30 -167.990234375 30 -136 c 6
 30 152 l 5
 93 177 l 5
 30 216 l 5
 30 539 l 6
 30 539.002929688 l 0
 30 568.001953125 62.0009765625 600 94 600 c 6
EndSplineSet
EndChar

StartChar: bar
Encoding: 124 124 91
Width: 124
VWidth: -400
Flags: HW
HStem: -200 21G<30 94> -200 21G<30 94> 580 20G<30 94> 580 20G<30 94>
VStem: 30 64<-200 600>
LayerCount: 2
Fore
SplineSet
30 600 m 5xa8
 94 600 l 5
 94 -200 l 5
 30 -200 l 5
 30 600 l 5xa8
EndSplineSet
EndChar

StartChar: braceright
Encoding: 125 125 92
Width: 252
VWidth: -200
Flags: HW
HStem: -200 64<30 158> 536 64<30 158>
VStem: 158 64<-136 152 216 536>
LayerCount: 2
Fore
SplineSet
158 600 m 6
 189.999023438 600 222 568.001953125 222 539.002929688 c 0
 222 539 l 6
 222 216 l 5
 159 177 l 5
 222 152 l 5
 222 -136 l 6
 222 -167.990234375 190.020507812 -200 158.030273438 -200 c 0
 158 -200 l 6
 30 -200 l 5
 30 -136 l 5
 158 -136 l 5
 158 174 l 5
 158 189 l 5
 158 536 l 5
 30 536 l 5
 30 600 l 5
 158 600 l 6
EndSplineSet
EndChar

StartChar: asciitilde
Encoding: 126 126 93
Width: 412
VWidth: -200
Flags: HW
HStem: 165 105
LayerCount: 2
Fore
SplineSet
152 270 m 5
 261 229 l 5
 382 256 l 5
 382 192 l 5
 261 165 l 5
 152 206 l 5
 30 165 l 5
 30 229 l 5
 152 270 l 5
EndSplineSet
EndChar

